<?xml version="1.0" encoding="UTF-8"?>
<svg id="Layer_1" data-name="Layer 1" xmlns="http://www.w3.org/2000/svg" viewBox="0 0 47.66 47.66">
  <defs>
    <style>
      .cls-1 {
        fill: #010101;
        stroke-width: 0px;
      }
    </style>
  </defs>
  <path class="cls-1" d="M23.83,0C10.67,0,0,10.67,0,23.83s10.67,23.83,23.83,23.83,23.83-10.67,23.83-23.83S36.99,0,23.83,0ZM28.13,34.67l-5.79-8.42-7.25,8.42h-1.87l8.29-9.63-8.29-12.06h6.32l5.48,7.98,6.86-7.98h1.87l-7.9,9.19h0l8.6,12.51h-6.32Z"/>
  <polygon class="cls-1" points="24.03 22.09 18.64 14.38 15.76 14.38 22.45 23.94 23.29 25.14 23.29 25.14 29.01 33.32 31.88 33.32 24.87 23.3 24.03 22.09"/>
</svg>