<?xml version="1.0" encoding="UTF-8"?>
<svg id="Layer_1" data-name="Layer 1" xmlns="http://www.w3.org/2000/svg" viewBox="0 0 47.66 47.66">
  <defs>
    <style>
      .cls-1 {
        fill: #010101;
        stroke-width: 0px;
      }
    </style>
  </defs>
  <path class="cls-1" d="M27.52,23.69l-5.58-3.03c-.23-.13-1.01.03-1.01.3v5.92c0,.26.78.43,1,.3l5.82-2.88c.24-.13,0-.47-.24-.6Z"/>
  <path class="cls-1" d="M23.83,0C10.67,0,0,10.67,0,23.83s10.67,23.83,23.83,23.83,23.83-10.67,23.83-23.83S36.99,0,23.83,0ZM35.41,26.85c0,2.81-2.27,5.08-5.08,5.08h-12.99c-2.81,0-5.08-2.27-5.08-5.08v-6.04c0-2.81,2.27-5.08,5.08-5.08h12.99c2.81,0,5.08,2.27,5.08,5.08v6.04Z"/>
</svg>